#!OML:ASF F:\VICON\USERDATA\INSTALL\rory3\rory3.ASF
:FULLY-SPECIFIED
:DEGREES
533
root 3.81168 16.5919 0.30183 8.53238 0.123541 4.13935
lowerback -5.388 2.61352 -0.89847
upperback 1.5124 3.7206 -3.62192
thorax 4.77725 1.87796 -2.89958
lowerneck 0.292177 8.6846 4.60548
upperneck 57.1689 11.5515 6.79458
head 25.7781 6.01553 5.38718
rclavicle 4.02539e-015 9.93923e-015
rhumerus -29.626 3.31274 -91.739
rradius 67.774
rwrist -49.6287
rhand -2.58661 -46.0836
rfingers 7.12502
rthumb 23.1107 -74.7175
lclavicle 4.02539e-015 9.93923e-015
lhumerus -17.1959 -13.1021 88.6179
lradius 58.1164
lwrist 79.9889
lhand -40.6028 -24.5974
lfingers 7.12502
lthumb -13.5488 4.94178
rfemur -51.8878 9.46777 9.87248
rtibia 77.2052
rfoot 10.3749 2.80641
rtoes -33.5141
lfemur -27.3271 -3.5959 -32.9812
ltibia 43.9953
lfoot -22.1511 14.1802
ltoes 8.20751
534
root 3.81964 16.5914 0.299083 8.53818 0.238905 4.29084
lowerback -5.3458 2.62884 -0.943096
upperback 1.4659 3.74478 -3.69909
thorax 4.70861 1.88991 -2.9554
lowerneck 0.401273 8.61385 4.75214
upperneck 57.102 11.4497 6.70203
head 25.6949 6.0133 5.26606
rclavicle 4.02539e-015 -3.18055e-015
rhumerus -29.7717 3.18539 -91.7136
rradius 67.6554
rwrist -49.6524
rhand -2.76597 -47.7183
rfingers 7.12502
rthumb 22.9386 -76.3737
lclavicle 4.02539e-015 -3.18055e-015
lhumerus -17.266 -13.2143 88.6626
lradius 57.755
lwrist 79.5072
lhand -40.5135 -23.6575
lfingers 7.12502
lthumb -13.4628 5.88738
rfemur -51.8428 9.32736 9.65077
rtibia 77.1855
rfoot 10.3558 2.78137
rtoes -32.7192
lfemur -27.282 -3.71135 -33.1735
ltibia 43.9526
lfoot -22.0748 14.2066
ltoes 7.92861
535
root 3.82515 16.5881 0.297046 8.53591 0.397646 4.36913
lowerback -5.31587 2.65803 -0.916905
upperback 1.4292 3.78348 -3.77941
thorax 4.66279 1.91128 -3.05208
lowerneck 0.508777 8.53724 4.91789
upperneck 57.0693 11.3118 6.6741
head 25.6509 6.00393 5.18234
rclavicle 4.47266e-015 4.77083e-015
rhumerus -29.9701 2.95103 -91.7089
rradius 67.5332
rwrist -49.5806
rhand -2.83415 -47.5044
rfingers 7.12502
rthumb 22.8731 -76.1679
lclavicle 4.47266e-015 4.77083e-015
lhumerus -17.2895 -13.429 88.6603
lradius 57.4741
lwrist 79.482
lhand -40.0693 -22.5525
lfingers 7.12502
lthumb -13.0346 7.02027
rfemur -51.764 9.19474 9.54367
rtibia 77.1721
rfoot 10.2984 2.79561
rtoes -32.5735
lfemur -27.2704 -3.81533 -33.2684
ltibia 43.9485
lfoot -22.0302 14.1808
ltoes 7.81632
536
root 3.8201 16.5864 0.300266 8.53536 0.397926 4.29516
lowerback -5.38449 2.76672 -0.914892
upperback 1.38195 3.93008 -3.80304
thorax 4.6617 1.98424 -3.06139
lowerneck 0.615075 8.46022 5.04091
upperneck 57.0966 11.108 6.81804
head 25.6465 5.9728 5.20781
rclavicle -1.39149e-014 5.88403e-014
rhumerus -30.2767 2.59405 -91.7209
rradius 67.4467
rwrist -49.4446
rhand -2.63415 -46.5232
rfingers 7.12502
rthumb 23.065 -75.1628
lclavicle -1.39149e-014 5.88403e-014
lhumerus -17.4567 -13.6207 88.6508
lradius 57.3083
lwrist 79.7016
lhand -39.6056 -22.6835
lfingers 7.12502
lthumb -12.5876 6.91729
rfemur -51.7625 9.36044 9.62882
rtibia 77.1411
rfoot 10.1773 2.86776
rtoes -33.2893
lfemur -27.3288 -3.70432 -33.1592
ltibia 43.98
lfoot -22.0724 14.049
ltoes 8.07134
537
root 3.81962 16.5878 0.301778 8.52753 0.418787 4.15798
lowerback -5.45132 2.82316 -0.825532
upperback 1.3889 4.00021 -3.77046
thorax 4.71409 2.02107 -3.06724
lowerneck 0.522559 8.44604 4.97776
upperneck 57.1734 10.9888 7.06753
head 25.7372 5.92969 5.37409
rclavicle -3.65764e-014 4.77083e-014
rhumerus -30.3697 2.40774 -91.6908
rradius 67.3084
rwrist -49.3214
rhand -2.3874 -46.9902
rfingers 7.12502
rthumb 23.3018 -75.6
lclavicle -3.65764e-014 4.77083e-014
lhumerus -17.6131 -13.5953 88.628
lradius 57.2109
lwrist 79.4485
lhand -39.6319 -22.2724
lfingers 7.12502
lthumb -12.613 7.32685
rfemur -51.7481 9.47869 9.76236
rtibia 77.0838
rfoot 10.1526 2.98894
rtoes -33.6241
lfemur -27.3659 -3.66365 -32.9983
ltibia 44.025
lfoot -22.0946 13.977
ltoes 8.24317
538
root 3.82916 16.5885 0.301704 8.53963 0.528258 4.11693
lowerback -5.46384 2.7754 -0.717626
upperback 1.41721 3.92854 -3.73219
thorax 4.75149 1.98818 -3.09369
lowerneck 0.422713 8.48235 4.89116
upperneck 57.2216 11.055 7.10194
head 25.8202 5.93061 5.44378
rclavicle 5.725e-014 -2.14687e-014
rhumerus -30.3191 2.50648 -91.6749
rradius 67.0145
rwrist -49.2437
rhand -2.17119 -46.3621
rfingers 7.12502
rthumb 23.5092 -74.9455
lclavicle 5.725e-014 -2.14687e-014
lhumerus -17.6782 -13.4568 88.6337
lradius 56.9675
lwrist 78.812
lhand -39.4832 -22.6201
lfingers 7.12502
lthumb -12.4696 6.98789
rfemur -51.6922 9.35529 9.7641
rtibia 77.0418
rfoot 10.1497 3.1051
rtoes -33.6249
lfemur -27.3645 -3.78254 -32.9835
ltibia 44.078
lfoot -22.0606 14.0253
ltoes 8.05096
539
root 3.83526 16.5878 0.304618 8.56429 0.584071 4.14611
lowerback -5.5154 2.74448 -0.728542
upperback 1.45 3.88992 -3.71245
thorax 4.81074 1.96849 -3.0678
lowerneck 0.39438 8.49616 4.99788
upperneck 57.236 11.1662 6.89457
head 25.9136 5.97088 5.33575
rclavicle -1.93815e-015 3.97569e-016
rhumerus -30.3131 2.62634 -91.675
rradius 66.7827
rwrist -49.2521
rhand -2.11308 -44.8691
rfingers 7.12502
rthumb 23.5649 -73.4454
lclavicle -1.93815e-015 3.97569e-016
lhumerus -17.7315 -13.4655 88.6538
lradius 56.5974
lwrist 78.26
lhand -38.4139 -25.1061
lfingers 7.12502
lthumb -11.4385 4.56191
rfemur -51.663 9.26507 9.7046
rtibia 77.0367
rfoot 9.91186 3.41989
rtoes -34.3672
lfemur -27.3868 -3.86601 -33.0378
ltibia 44.1483
lfoot -22.1393 14.073
ltoes 8.03706
540
root 3.83414 16.5832 0.30606 8.58025 0.61802 4.07202
lowerback -5.5862 2.75443 -0.697137
upperback 1.49298 3.90338 -3.68285
thorax 4.89645 1.97581 -3.04902
lowerneck 0.290081 8.48438 5.05391
upperneck 57.2438 11.1619 6.84518
head 25.9993 5.96992 5.31587
rclavicle 3.93594e-014 2.50469e-014
rhumerus -30.2913 2.53157 -91.5994
rradius 66.6309
rwrist -48.8879
rhand -1.34093 -44.996
rfingers 7.12502
rthumb 24.3054 -73.4751
lclavicle 3.93594e-014 2.50469e-014
lhumerus -17.7842 -13.4167 88.6041
lradius 56.3504
lwrist 78.2572
lhand -36.9724 -26.3081
lfingers 7.12502
lthumb -10.048 3.43203
rfemur -51.693 9.30808 9.78204
rtibia 77.078
rfoot 9.84951 3.55318
rtoes -34.4685
lfemur -27.4704 -3.90331 -32.9467
ltibia 44.252
lfoot -22.2733 14.0799
ltoes 8.34695
541
root 3.83272 16.5742 0.305377 8.61396 0.660884 4.01762
lowerback -5.63909 2.8046 -0.634401
upperback 1.47802 3.96781 -3.70075
thorax 4.91992 2.00993 -3.09408
lowerneck 0.233098 8.41977 4.97891
upperneck 57.2862 10.9654 7.07034
head 26.0368 5.89727 5.4449
rclavicle -2.45499e-014 -2.26615e-014
rhumerus -30.4431 2.32719 -91.574
rradius 66.7439
rwrist -48.9691
rhand -1.78921 -46.0997
rfingers 7.12502
rthumb 23.8756 -74.6357
lclavicle -2.45499e-014 -2.26615e-014
lhumerus -17.8561 -13.4824 88.5431
lradius 56.1906
lwrist 78.4849
lhand -36.1233 -25.6341
lfingers 7.12502
lthumb -9.22882 4.14394
rfemur -51.7907 9.30971 9.8373
rtibia 77.1632
rfoot 9.94808 3.46493
rtoes -34.211
lfemur -27.5783 -3.93812 -32.8796
ltibia 44.363
lfoot -22.3049 14.0753
ltoes 8.34831
542
root 3.83291 16.5667 0.304353 8.67901 0.67907 4.07164
lowerback -5.69715 2.84256 -0.689696
upperback 1.4315 4.02428 -3.73679
thorax 4.90617 2.03656 -3.09311
lowerneck 0.276356 8.34896 4.94911
upperneck 57.3177 10.8083 7.18033
head 26.0431 5.84374 5.49109
rclavicle -6.82328e-014 3.93594e-014
rhumerus -30.6276 2.23924 -91.566
rradius 66.7718
rwrist -49.2134
rhand -2.23291 -46.0382
rfingers 7.12502
rthumb 23.45 -74.6292
lclavicle -6.82328e-014 3.93594e-014
lhumerus -17.8644 -13.6729 88.5149
lradius 55.9488
lwrist 78.515
lhand -35.803 -25.3772
lfingers 7.12502
lthumb -8.91966 4.41427
rfemur -51.9343 9.28206 9.75902
rtibia 77.2406
rfoot 9.93738 3.42498
rtoes -34.4788
lfemur -27.6807 -3.96639 -32.941
ltibia 44.4434
lfoot -22.2768 14.0826
ltoes 7.96999
543
root 3.83226 16.5676 0.305331 8.69962 0.625362 4.05651
lowerback -5.72596 2.85337 -0.771922
upperback 1.39758 4.04201 -3.69401
thorax 4.87886 2.04174 -2.99997
lowerneck 0.436079 8.33565 4.98027
upperneck 57.2879 10.856 7.03117
head 25.9571 5.86603 5.37799
rclavicle -5.20319e-014 4.37326e-015
rhumerus -30.7037 2.2881 -91.493
rradius 66.5615
rwrist -49.0858
rhand -1.85625 -46.0374
rfingers 7.12502
rthumb 23.8113 -74.5817
lclavicle -5.20319e-014 4.37326e-015
lhumerus -17.8981 -13.541 88.4947
lradius 55.7014
lwrist 78.3605
lhand -35.044 -24.3975
lfingers 7.12502
lthumb -8.18724 5.42387
rfemur -51.9866 9.42269 9.74723
rtibia 77.2404
rfoot 9.96318 3.36243
rtoes -34.4898
lfemur -27.733 -3.96756 -32.912
ltibia 44.4657
lfoot -22.2436 14.0943
ltoes 7.95516
544
root 3.83212 16.5752 0.308532 8.64556 0.605182 3.9166
lowerback -5.67897 2.87214 -0.751308
upperback 1.35832 4.05839 -3.61156
thorax 4.807 2.04874 -2.927
lowerneck 0.636939 8.31817 5.03409
upperneck 57.2667 10.8976 6.88211
head 25.8697 5.89227 5.25834
rclavicle 1.10325e-014 1.66979e-014
rhumerus -30.9039 2.31111 -91.4547
rradius 66.5235
rwrist -49.1948
rhand -2.44216 -46.9971
rfingers 7.12502
rthumb 23.2492 -75.6136
lclavicle 1.10325e-014 1.66979e-014
lhumerus -18.0589 -13.1646 88.438
lradius 55.4421
lwrist 78.4593
lhand -32.8216 -22.7324
lfingers 7.12502
lthumb -6.04201 7.16145
rfemur -51.8704 9.58942 9.89877
rtibia 77.1749
rfoot 9.99195 3.3392
rtoes -34.4617
lfemur -27.6977 -3.9707 -32.7432
ltibia 44.4627
lfoot -22.2465 14.1028
ltoes 8.33125
